<svg xmlns="http://www.w3.org/2000/svg" viewBox="0 0 111.18 162.95">
  <defs>
    <clipPath id="a" transform="translate(-5.01 -4.98)">
      <path style="fill:none" d="M0 0h120v172.5H0z"/>
    </clipPath>
    <style>
      .b{clip-path:url(#a)}.c{fill:#f8f8ff}
    </style>
  </defs>
  <g class="b">
    <path class="c" d="M9.49 9.4h-5.5l-.37.93a9.34 9.34 0 0 0-.84 2.62 1.15 1.15 0 0 0 .45 1 1.78 1.78 0 0 0 1.14.34v.49H-.01v-.49a2.35 2.35 0 0 0 1.44-.68 8.45 8.45 0 0 0 1.14-2.24c0-.11.21-.52.51-1.25L7.33.02h.42l4.86 11.57.67 1.53a2 2 0 0 0 .61.81 2.16 2.16 0 0 0 1.14.37v.49H9.3v-.49a4.1 4.1 0 0 0 1.43-.16.6.6 0 0 0 .37-.61 6.34 6.34 0 0 0-.5-1.41Zm-.19-.48L6.73 2.71 4.16 8.92Z"/>
  </g>
  <path class="c" d="M83.99 15.02h-.26l-2.4-6.6-2.12 6.6h-.28l-1.94-6.24c-.17-.56-.3-.94-.37-1.12a1 1 0 0 0-.3-.41 1.17 1.17 0 0 0-.62-.15v-.27h3v.27a1.39 1.39 0 0 0-.69.15.4.4 0 0 0-.16.34 4.69 4.69 0 0 0 .25 1l1.42 4.63 2.07-6.38h.4l2.33 6.38 1.16-4.2a5.44 5.44 0 0 0 .24-1.12c0-.51-.27-.77-.82-.77v-.27h2.17v.27a.93.93 0 0 0-.72.35 6.66 6.66 0 0 0-.59 1.54ZM94.28 12.3h.28l-.17 2.47h-6.58v-.26h.18a1.25 1.25 0 0 0 .76-.16.69.69 0 0 0 .22-.4 9.44 9.44 0 0 0 0-1.24v-3.9a9.57 9.57 0 0 0 0-1.2.59.59 0 0 0-.23-.4 1.71 1.71 0 0 0-.75-.11v-.27h5.67l.19 2h-.27a3.23 3.23 0 0 0-.46-1.18 1.21 1.21 0 0 0-.65-.44 5.73 5.73 0 0 0-1.21-.09h-1.1v3.33h.83a2.26 2.26 0 0 0 .82-.1.5.5 0 0 0 .3-.3 2.73 2.73 0 0 0 .07-.79h.28v2.72h-.28a2.26 2.26 0 0 0-.11-.89.54.54 0 0 0-.32-.29 3 3 0 0 0-.73-.07h-.87v1.89a4.12 4.12 0 0 0 .18 1.66c.12.16.45.25 1 .25h.59a2.73 2.73 0 0 0 1-.17 1.72 1.72 0 0 0 .77-.66 3.7 3.7 0 0 0 .59-1.4ZM102.27 12.44l-.06 2.33h-6.75v-.26h.24a1.41 1.41 0 0 0 .7-.13.63.63 0 0 0 .26-.4 10.27 10.27 0 0 0 0-1.27v-3.9a9.5 9.5 0 0 0 0-1.22.55.55 0 0 0-.24-.39 1.86 1.86 0 0 0-.78-.1h-.18v-.27h3.82v.27h-.35a1.8 1.8 0 0 0-.77.1.53.53 0 0 0-.25.36 7.54 7.54 0 0 0-.06 1.25v4.21a7.24 7.24 0 0 0 0 1.08.52.52 0 0 0 .26.34 2.05 2.05 0 0 0 .89.12h.6a3.61 3.61 0 0 0 1.09-.13 1.52 1.52 0 0 0 .67-.57 4.27 4.27 0 0 0 .59-1.37ZM109.88 12.44l-.06 2.33h-6.75v-.26h.24a1.41 1.41 0 0 0 .7-.13.58.58 0 0 0 .25-.4 8 8 0 0 0 .06-1.27v-3.9a7.42 7.42 0 0 0-.06-1.22.52.52 0 0 0-.23-.39 1.86 1.86 0 0 0-.78-.1h-.18v-.27h3.82v.27h-.36a1.77 1.77 0 0 0-.76.1.5.5 0 0 0-.25.36 7.54 7.54 0 0 0-.06 1.25v4.21a7.24 7.24 0 0 0 0 1.08.5.5 0 0 0 .25.34 2.14 2.14 0 0 0 .9.12h.6a3.61 3.61 0 0 0 1.09-.13 1.58 1.58 0 0 0 .67-.57 4.29 4.29 0 0 0 .58-1.37ZM8.56 27.14h.27v3h-.27a2.38 2.38 0 0 0-.42-.91 3.67 3.67 0 0 1-2.9 1.28 4.13 4.13 0 0 1-3-1.18 4.2 4.2 0 0 1-1.25-3.1 5.35 5.35 0 0 1 .55-2.4 3.73 3.73 0 0 1 1.52-1.68 4.36 4.36 0 0 1 2.14-.54 3.73 3.73 0 0 1 1.79.41 3.3 3.3 0 0 1 1.17.87 2.84 2.84 0 0 0 .33-1.11h.28l.06 3.24h-.27a3.67 3.67 0 0 0-1.17-2.42 3.15 3.15 0 0 0-2-.68 2.53 2.53 0 0 0-2.13 1.1 5.29 5.29 0 0 0-.8 3.14 4.5 4.5 0 0 0 .87 3 2.71 2.71 0 0 0 2.17 1 3.37 3.37 0 0 0 1.41-.33 2.49 2.49 0 0 0 1.15-1.14 4.35 4.35 0 0 0 .5-1.55ZM13.89 26.02a4.12 4.12 0 0 1 1.33-3.2 4.8 4.8 0 0 1 3.33-1.2 4.91 4.91 0 0 1 3.36 1.19 4.13 4.13 0 0 1 1.35 3.21 4.3 4.3 0 0 1-1.27 3.28 4.73 4.73 0 0 1-3.4 1.23 4.74 4.74 0 0 1-3.37-1.23 4.33 4.33 0 0 1-1.33-3.28Zm1.45.05a5 5 0 0 0 .83 3.12 3 3 0 0 0 2.49 1 2.79 2.79 0 0 0 2.29-1 4.83 4.83 0 0 0 .85-3.11 4.92 4.92 0 0 0-.81-3.06 2.86 2.86 0 0 0-2.41-1.07 2.86 2.86 0 0 0-2.39 1 4.93 4.93 0 0 0-.85 3.07ZM35.21 30.57l-6.08-8.07v6a4 4 0 0 0 .07 1 .89.89 0 0 0 .41.44 2.17 2.17 0 0 0 1 .19v.29h-3.18v-.29a2.36 2.36 0 0 0 .94-.22.7.7 0 0 0 .38-.39 4.8 4.8 0 0 0 .06-1v-4.61a6.12 6.12 0 0 0-.09-1.32.65.65 0 0 0-.29-.44 2.68 2.68 0 0 0-.89-.09v-.29h2.54l5.09 6.73v-5.15a1.94 1.94 0 0 0-.11-.8.85.85 0 0 0-.48-.36 2.49 2.49 0 0 0-.87-.13v-.29h3.12v.25a2.3 2.3 0 0 0-.86.21.77.77 0 0 0-.4.4 2.41 2.41 0 0 0-.08.78v7.12ZM41.51 23.84h-.3l.05-2.07h8.35l.05 2.07h-.28a3.14 3.14 0 0 0-.4-1.23 1 1 0 0 0-.54-.46 3.86 3.86 0 0 0-1-.09h-1.38v6.07a12.45 12.45 0 0 0 0 1.33.71.71 0 0 0 .26.47 1.45 1.45 0 0 0 .79.15h.42v.29h-4.25v-.29h.44a1.46 1.46 0 0 0 .77-.14.63.63 0 0 0 .27-.43 9.38 9.38 0 0 0 .06-1.38v-6.11h-1.28a5.15 5.15 0 0 0-1.11.08 1 1 0 0 0-.54.48 3.13 3.13 0 0 0-.38 1.26ZM58.54 27.2h-3.27l-.22.55a5.37 5.37 0 0 0-.49 1.55.67.67 0 0 0 .26.58 1.06 1.06 0 0 0 .68.2v.29h-2.51v-.29a1.39 1.39 0 0 0 .85-.4 5.09 5.09 0 0 0 .67-1.32c0-.07.12-.31.31-.74l2.5-6h.25l2.87 6.83.39.9a1.13 1.13 0 0 0 .36.48 1.3 1.3 0 0 0 .68.22v.29h-3.43v-.29a2.6 2.6 0 0 0 .84-.09.36.36 0 0 0 .22-.36 3.66 3.66 0 0 0-.3-.84Zm-.1-.28-1.53-3.67-1.52 3.67ZM66.11 22.02v-.29h3.94v.29h-.18a2.18 2.18 0 0 0-.84.1.57.57 0 0 0-.26.39 8.63 8.63 0 0 0-.07 1.36v4.22a11.54 11.54 0 0 0 .05 1.33.67.67 0 0 0 .26.47 1.43 1.43 0 0 0 .79.15h.25v.29h-3.94v-.29h.26a1.39 1.39 0 0 0 .76-.14.57.57 0 0 0 .27-.43 9.38 9.38 0 0 0 .06-1.38v-4.18a8.75 8.75 0 0 0-.06-1.32.57.57 0 0 0-.25-.42 2.11 2.11 0 0 0-.85-.11ZM82.27 30.57l-6.08-8.07v6a4 4 0 0 0 .07 1 .89.89 0 0 0 .41.44 2.14 2.14 0 0 0 1 .19v.29h-3.18v-.29a2.36 2.36 0 0 0 .94-.22.7.7 0 0 0 .38-.39 4.8 4.8 0 0 0 .06-1v-4.61a6.12 6.12 0 0 0-.09-1.32.65.65 0 0 0-.29-.44 2.68 2.68 0 0 0-.89-.09v-.29h2.54l5.1 6.73v-5.15a1.9 1.9 0 0 0-.12-.8.85.85 0 0 0-.48-.36 2.49 2.49 0 0 0-.87-.13v-.29h3.12v.25a2.3 2.3 0 0 0-.86.21.77.77 0 0 0-.4.4 2.41 2.41 0 0 0-.08.78v7.12ZM95.25 27.7h.3l-.18 2.67h-7.13v-.29h.18a1.33 1.33 0 0 0 .83-.17.76.76 0 0 0 .23-.43 9.25 9.25 0 0 0 .05-1.35v-4.22a9.13 9.13 0 0 0-.05-1.29.64.64 0 0 0-.25-.44 1.78 1.78 0 0 0-.81-.12v-.29h6.15l.2 2.14h-.3a3.29 3.29 0 0 0-.5-1.28 1.21 1.21 0 0 0-.7-.47 5.77 5.77 0 0 0-1.28-.14h-1.2v3.61h.92a2.3 2.3 0 0 0 .88-.11.61.61 0 0 0 .33-.32 3.11 3.11 0 0 0 .08-.86h.29v3h-.3a2.44 2.44 0 0 0-.13-1 .55.55 0 0 0-.35-.32 2.83 2.83 0 0 0-.78-.07h-1v2a4.41 4.41 0 0 0 .2 1.8c.13.18.48.27 1.06.27h.64a3.26 3.26 0 0 0 1.12-.17 2 2 0 0 0 .83-.72 4.23 4.23 0 0 0 .67-1.43ZM99.99 21.84l1.42-.07c1.18-.06 2-.09 2.39-.09a6.35 6.35 0 0 1 3 .58 3.81 3.81 0 0 1 1.59 1.59 4.85 4.85 0 0 1 .53 2.3 5 5 0 0 1-.29 1.73 3.55 3.55 0 0 1-.78 1.3 3.37 3.37 0 0 1-1.16.79 4.88 4.88 0 0 1-1.25.34c-.39 0-.94.06-1.66.06h-3.79v-.29h.35a1.46 1.46 0 0 0 .77-.14.63.63 0 0 0 .27-.43 9.38 9.38 0 0 0 .06-1.38v-4.11a8.91 8.91 0 0 0-.06-1.33.56.56 0 0 0-.26-.41 2.05 2.05 0 0 0-.84-.11h-.29Zm2.66.18v7.39a.69.69 0 0 0 .29.52 2.18 2.18 0 0 0 1 .15 4.8 4.8 0 0 0 1.84-.31 2.53 2.53 0 0 0 1.21-1.21 4.82 4.82 0 0 0 .49-2.31 6.46 6.46 0 0 0-.28-1.95 3.5 3.5 0 0 0-.81-1.39 2.71 2.71 0 0 0-1.17-.73 5.8 5.8 0 0 0-1.65-.2c-.25.04-.58.04-.9.04ZM7.99 44.29h.33l-.2 2.88H.43v-.31h.2a1.47 1.47 0 0 0 .89-.18.83.83 0 0 0 .25-.47 9.92 9.92 0 0 0 .06-1.45v-4.54a10 10 0 0 0-.06-1.4.67.67 0 0 0-.27-.47 1.82 1.82 0 0 0-.87-.13v-.31h6.62l.22 2.31h-.32a3.7 3.7 0 0 0-.54-1.38 1.34 1.34 0 0 0-.75-.51 6.1 6.1 0 0 0-1.41-.11H3.16v3.89h1a2.55 2.55 0 0 0 .93-.09.59.59 0 0 0 .36-.35 3.14 3.14 0 0 0 .08-.92h.33v3.17h-.33a2.6 2.6 0 0 0-.13-1 .58.58 0 0 0-.41-.4 2.77 2.77 0 0 0-.84-.08h-1v2.19a4.78 4.78 0 0 0 .21 1.94c.14.19.53.29 1.15.29h.69a3.21 3.21 0 0 0 1.2-.19 2.16 2.16 0 0 0 .9-.77 4.56 4.56 0 0 0 .69-1.61ZM18.64 45.58l3.35-7.67h2.85v.31h-.35a2.36 2.36 0 0 0-.89.11.59.59 0 0 0-.28.42 8.29 8.29 0 0 0-.08 1.47v4.54a10.36 10.36 0 0 0 .06 1.43.76.76 0 0 0 .28.51 1.52 1.52 0 0 0 .85.16h.41v.31h-4.41v-.31h.33a1.56 1.56 0 0 0 .81-.15.75.75 0 0 0 .3-.47 10.65 10.65 0 0 0 .06-1.48v-5.9l-3.67 8.31h-.27l-3.7-8.31v5.43a10.23 10.23 0 0 0 .07 1.52 1.2 1.2 0 0 0 .42.71 1.7 1.7 0 0 0 1 .34v.31h-3.36v-.31a1.69 1.69 0 0 0 1-.32 1.23 1.23 0 0 0 .46-.72 10.52 10.52 0 0 0 .08-1.57v-4a8.34 8.34 0 0 0-.07-1.43.61.61 0 0 0-.27-.45 2.17 2.17 0 0 0-.91-.12h-.25v-.31h2.82ZM31.83 42.81v2a13.27 13.27 0 0 0 0 1.43.72.72 0 0 0 .28.51 1.54 1.54 0 0 0 .85.16h.3v.31h-4.19v-.31h.24a1.65 1.65 0 0 0 .83-.15.7.7 0 0 0 .29-.47 10.65 10.65 0 0 0 .06-1.48v-4.59a10.15 10.15 0 0 0-.06-1.43.59.59 0 0 0-.28-.45 2.17 2.17 0 0 0-.91-.12h-.17v-.31h3.33a8.34 8.34 0 0 1 2.21.22 2.62 2.62 0 0 1 1.28.8 2.14 2.14 0 0 1 .49 1.45 2.57 2.57 0 0 1-.34 1.34 2.13 2.13 0 0 1-1 .88 5.71 5.71 0 0 1-2.22.3Zm0-.34h.66a4.1 4.1 0 0 0 1.29-.16 1.52 1.52 0 0 0 .82-.67 2.31 2.31 0 0 0 .33-1.27 2.25 2.25 0 0 0-.56-1.68 2.6 2.6 0 0 0-1.83-.54 6.24 6.24 0 0 0-.71 0ZM40.77 40.13h-.32v-2.22h9v2.22h-.29a3.67 3.67 0 0 0-.43-1.32 1.13 1.13 0 0 0-.59-.5 4.41 4.41 0 0 0-1.07-.09h-1.4v6.54a11.08 11.08 0 0 0 0 1.43.72.72 0 0 0 .28.51 1.52 1.52 0 0 0 .84.16h.45v.31h-4.57v-.31h.48a1.65 1.65 0 0 0 .83-.15.7.7 0 0 0 .29-.47 10.65 10.65 0 0 0 .06-1.48v-6.54h-1.34a5.07 5.07 0 0 0-1.2.09 1 1 0 0 0-.58.51 3.61 3.61 0 0 0-.44 1.31ZM53.71 38.22v-.31h4.28v.31h-.2a2.36 2.36 0 0 0-.89.11.63.63 0 0 0-.29.42 10 10 0 0 0-.07 1.47v4.54a13.27 13.27 0 0 0 .05 1.43.76.76 0 0 0 .28.51 1.52 1.52 0 0 0 .85.16h.27v.31h-4.28v-.31h.28a1.6 1.6 0 0 0 .82-.15.7.7 0 0 0 .29-.47 10.65 10.65 0 0 0 .06-1.48v-4.54a10.15 10.15 0 0 0-.06-1.43.61.61 0 0 0-.27-.45 2.22 2.22 0 0 0-.92-.12ZM70.47 47.39l-6.56-8.69v6.43a4.44 4.44 0 0 0 .08 1 .87.87 0 0 0 .45.47 2.33 2.33 0 0 0 1.11.21v.31h-3.46v-.31a2.45 2.45 0 0 0 1-.24.78.78 0 0 0 .41-.42 4.61 4.61 0 0 0 .07-1.07v-4.86a6.24 6.24 0 0 0-.1-1.43.71.71 0 0 0-.31-.47 2.82 2.82 0 0 0-1-.1v-.31h2.83l5.49 7.25v-5.55a2 2 0 0 0-.13-.86.89.89 0 0 0-.51-.39 2.91 2.91 0 0 0-.94-.14v-.31h3.36v.31a2.33 2.33 0 0 0-.92.23.8.8 0 0 0-.43.42 2.46 2.46 0 0 0-.1.85v7.67ZM83.8 44.29h.33l-.2 2.88h-7.68v-.31h.19a1.45 1.45 0 0 0 .89-.18.79.79 0 0 0 .26-.47 9.92 9.92 0 0 0 .06-1.45v-4.54a10 10 0 0 0-.06-1.4.67.67 0 0 0-.27-.47 1.87 1.87 0 0 0-.88-.13v-.31h6.63l.22 2.31h-.3a3.55 3.55 0 0 0-.53-1.38 1.36 1.36 0 0 0-.76-.51 6 6 0 0 0-1.41-.11h-1.3v3.89h1a2.61 2.61 0 0 0 1-.12.59.59 0 0 0 .36-.35 3.55 3.55 0 0 0 .08-.92h.32v3.17h-.32a2.6 2.6 0 0 0-.13-1 .6.6 0 0 0-.38-.34 2.81 2.81 0 0 0-.84-.08h-1.09v2.19a4.78 4.78 0 0 0 .21 1.94c.14.19.52.29 1.14.29h.65a3.23 3.23 0 0 0 1.21-.19 2.16 2.16 0 0 0 .9-.77 4.76 4.76 0 0 0 .7-1.64ZM88.7 47.08v-3h.34c.39 1.94 1.3 2.94 2.75 2.94a2 2 0 0 0 1.52-.56 1.76 1.76 0 0 0 .53-1.24 1.55 1.55 0 0 0-.47-1.2 5.68 5.68 0 0 0-1.72-1 12.9 12.9 0 0 1-1.66-.82 2.56 2.56 0 0 1-.89-.93 2.51 2.51 0 0 1-.34-1.25 2.19 2.19 0 0 1 .69-1.65 2.42 2.42 0 0 1 1.74-.66 3.17 3.17 0 0 1 1.11.2 2.78 2.78 0 0 1 1.07.79 1.54 1.54 0 0 0 .35-.81h.27v2.42h-.3a3.28 3.28 0 0 0-.92-1.67 2.21 2.21 0 0 0-1.53-.6 1.54 1.54 0 0 0-1.21.44 1.47 1.47 0 0 0-.39 1 1.44 1.44 0 0 0 .49 1.09 6.45 6.45 0 0 0 1.73 1 17.53 17.53 0 0 1 1.74.86 2.5 2.5 0 0 1 .87.9 2.6 2.6 0 0 1 .33 1.33 2.53 2.53 0 0 1-.8 1.93 2.93 2.93 0 0 1-2.11.75 3.24 3.24 0 0 1-2.55-1.17 2.23 2.23 0 0 0-.33.9ZM99.54 47.08v-3h.34q.58 2.91 2.76 2.91a2 2 0 0 0 1.51-.56 1.73 1.73 0 0 0 .54-1.24 1.56 1.56 0 0 0-.48-1.17 5.55 5.55 0 0 0-1.72-1 12.9 12.9 0 0 1-1.68-.84 2.53 2.53 0 0 1-.88-.93 2.4 2.4 0 0 1-.32-1.23 2.22 2.22 0 0 1 .68-1.65 2.42 2.42 0 0 1 1.74-.66 3.12 3.12 0 0 1 1.11.2 2.78 2.78 0 0 1 1.07.79 1.4 1.4 0 0 0 .35-.81h.3v2.42h-.3a3.28 3.28 0 0 0-.92-1.67 2.18 2.18 0 0 0-1.52-.6 1.55 1.55 0 0 0-1.22.44 1.51 1.51 0 0 0-.38 1 1.43 1.43 0 0 0 .48 1.09 6.62 6.62 0 0 0 1.73 1 17.53 17.53 0 0 1 1.74.86 2.5 2.5 0 0 1 .87.9 2.6 2.6 0 0 1 .33 1.33 2.53 2.53 0 0 1-.79 1.93 3 3 0 0 1-2.12.75 3.21 3.21 0 0 1-2.54-1.17 2.23 2.23 0 0 0-.34.9ZM107.64 49.46v-.29a1.85 1.85 0 0 0 1-.64 1.5 1.5 0 0 0 .34-.91q0-.39-.24-.39h-.16a.45.45 0 0 1-.16 0 .65.65 0 0 1-.44-.15.52.52 0 0 1-.17-.41.6.6 0 0 1 .17-.45.58.58 0 0 1 .43-.17.79.79 0 0 1 .68.38 1.54 1.54 0 0 1 .26.9 2 2 0 0 1-.45 1.31 2.24 2.24 0 0 1-1.26.82ZM7.41 68.5h.31l-.19 2.67H.4v-.29h.18a1.31 1.31 0 0 0 .83-.17.83.83 0 0 0 .24-.43 11.1 11.1 0 0 0 0-1.35v-4.22a8.62 8.62 0 0 0-.06-1.29.6.6 0 0 0-.19-.4 1.83 1.83 0 0 0-.82-.12v-.29h6.15l.2 2.14h-.29a3.63 3.63 0 0 0-.5-1.28 1.24 1.24 0 0 0-.7-.47 5.87 5.87 0 0 0-1.31-.1H2.99v3.61h.91a2.3 2.3 0 0 0 .88-.11.55.55 0 0 0 .33-.32 3.11 3.11 0 0 0 .08-.86h.3v3h-.3a2.5 2.5 0 0 0-.12-1 .57.57 0 0 0-.36-.32 2.83 2.83 0 0 0-.78-.07h-.94v2a4.49 4.49 0 0 0 .19 1.8c.13.18.49.27 1.06.27h.64a3.18 3.18 0 0 0 1.11-.19 2 2 0 0 0 .83-.72 4.05 4.05 0 0 0 .59-1.49ZM15.45 69.69l3.13-7.12h2.64v.29h-.32a2.12 2.12 0 0 0-.83.1.54.54 0 0 0-.26.39 7.43 7.43 0 0 0-.07 1.36v4.22a11.54 11.54 0 0 0 .05 1.33.71.71 0 0 0 .26.47 1.45 1.45 0 0 0 .79.15h.38v.29h-4.11v-.29h.3a1.39 1.39 0 0 0 .76-.14.65.65 0 0 0 .27-.43 9.38 9.38 0 0 0 .06-1.38v-5.47l-3.4 7.71h-.3l-3.44-7.71v5a8.77 8.77 0 0 0 .07 1.41 1.09 1.09 0 0 0 .39.65 1.5 1.5 0 0 0 .93.32v.29H9.67v-.29a1.56 1.56 0 0 0 .9-.3 1.08 1.08 0 0 0 .42-.62 9.07 9.07 0 0 0 .08-1.46v-3.75a7.11 7.11 0 0 0-.08-1.32.6.6 0 0 0-.25-.42 2.11 2.11 0 0 0-.85-.11h-.23v-.29h2.63ZM25.82 67.12v1.81a11.54 11.54 0 0 0 .05 1.33.67.67 0 0 0 .26.47 1.45 1.45 0 0 0 .79.15h.28v.29h-3.94v-.29h.23a1.39 1.39 0 0 0 .76-.14.65.65 0 0 0 .27-.43 9.38 9.38 0 0 0 .06-1.38v-4.22a8.65 8.65 0 0 0-.06-1.32.6.6 0 0 0-.25-.42 2.15 2.15 0 0 0-.85-.11h-.16v-.29h1.08c.86 0 1.53-.05 2-.05a7.69 7.69 0 0 1 2.05.21 2.41 2.41 0 0 1 1.18.75 2 2 0 0 1 .46 1.34 2.44 2.44 0 0 1-.29 1.2 2 2 0 0 1-.9.82 5.52 5.52 0 0 1-2.07.27Zm0-.31h.62a4 4 0 0 0 1.2-.15 1.43 1.43 0 0 0 .76-.63 2.14 2.14 0 0 0 .31-1.17 2.1 2.1 0 0 0-.53-1.57 2.42 2.42 0 0 0-1.7-.49 6 6 0 0 0-.66 0ZM32.25 64.64h-.26v-2.07h8.36v2.07h-.27a3.31 3.31 0 0 0-.4-1.23 1 1 0 0 0-.55-.46 3.72 3.72 0 0 0-1-.09H36.8v6.07a11.54 11.54 0 0 0 0 1.33.67.67 0 0 0 .26.47 1.43 1.43 0 0 0 .78.15h.42v.29h-4.27v-.29h.45a1.41 1.41 0 0 0 .76-.14.65.65 0 0 0 .27-.43 9.38 9.38 0 0 0 .06-1.38v-6.07h-1.24a5.2 5.2 0 0 0-1.12.08 1 1 0 0 0-.54.48 3.51 3.51 0 0 0-.38 1.22ZM47.13 67.41l1.69-2.85a2.35 2.35 0 0 0 .42-1 .67.67 0 0 0-.22-.49 1.1 1.1 0 0 0-.79-.22v-.29h2.81v.29a1.64 1.64 0 0 0-.95.43 7.94 7.94 0 0 0-.91 1.28l-1.93 3.22v1.14a9.53 9.53 0 0 0 .06 1.4.62.62 0 0 0 .29.43 2 2 0 0 0 .86.12v.29h-3.67v-.29h.14a1.46 1.46 0 0 0 .77-.14.65.65 0 0 0 .27-.43 12 12 0 0 0 .02-1.37v-1.06l-2.14-3.52a9.57 9.57 0 0 0-.86-1.27 1.17 1.17 0 0 0-.78-.22v-.29h3.49v.29c-.65 0-1 .15-1 .44a1.94 1.94 0 0 0 .32.71ZM71.16 66.95l2.62-2.37c.61-.55.92-.94.92-1.17s-.31-.53-.92-.55v-.29h3.21v.29a2.14 2.14 0 0 0-.81.17 3 3 0 0 0-.74.43c-.22.18-.64.55-1.25 1.13l-1.52 1.43 3.22 3.26a12.06 12.06 0 0 0 1.48 1.36 1.86 1.86 0 0 0 1 .23v.29h-4.5v-.29h.17a2 2 0 0 0 .9-.12.35.35 0 0 0 .18-.3c0-.17-.3-.57-.92-1.18l-2.43-2.45-.61.54v1.56a9.55 9.55 0 0 0 0 1.33.66.66 0 0 0 .25.47 1.45 1.45 0 0 0 .79.15h.17v.29h-3.82v-.29h.27a1.39 1.39 0 0 0 .76-.14.62.62 0 0 0 .28-.43 9.38 9.38 0 0 0 .06-1.38v-4.21a7.5 7.5 0 0 0-.07-1.36.54.54 0 0 0-.26-.39 2.48 2.48 0 0 0-.92-.1v-.29h3.81v.29h-.16a2.08 2.08 0 0 0-.83.1.55.55 0 0 0-.27.39 9 9 0 0 0-.06 1.36ZM87.26 68.5h.3l-.18 2.67h-7.13v-.29h.18a1.27 1.27 0 0 0 .82-.17.72.72 0 0 0 .24-.43 9.25 9.25 0 0 0 0-1.35v-4.22a9.13 9.13 0 0 0 0-1.29.64.64 0 0 0-.25-.44 1.78 1.78 0 0 0-.81-.12v-.29h6.15l.2 2.14h-.3a3.29 3.29 0 0 0-.5-1.28 1.21 1.21 0 0 0-.7-.47 5.87 5.87 0 0 0-1.31-.1h-1.19v3.61h.92a2.24 2.24 0 0 0 .87-.11.55.55 0 0 0 .33-.32 2.76 2.76 0 0 0 .08-.86h.3v3h-.29a2.5 2.5 0 0 0-.12-1 .58.58 0 0 0-.35-.32 2.83 2.83 0 0 0-.78-.07h-.95v2a4.41 4.41 0 0 0 .2 1.8c.13.18.48.27 1.06.27h.64a3.26 3.26 0 0 0 1.12-.17 2 2 0 0 0 .83-.72 4.23 4.23 0 0 0 .62-1.47ZM92.16 67.12v1.81a11.54 11.54 0 0 0 0 1.33.66.66 0 0 0 .25.47 1.47 1.47 0 0 0 .79.15h.29v.29H89.6v-.29h.22a1.43 1.43 0 0 0 .77-.14.65.65 0 0 0 .27-.43 9.38 9.38 0 0 0 .06-1.38v-4.22a8.65 8.65 0 0 0-.06-1.32.57.57 0 0 0-.26-.42 2.11 2.11 0 0 0-.85-.11h-.15v-.29h1.07c.87 0 1.54-.05 2-.05a7.78 7.78 0 0 1 2.06.21 2.41 2.41 0 0 1 1.18.75 2 2 0 0 1 .46 1.34 2.45 2.45 0 0 1-.32 1.25 2 2 0 0 1-.9.82 5.46 5.46 0 0 1-2.06.27Zm0-.31h.62a3.88 3.88 0 0 0 1.21-.15 1.45 1.45 0 0 0 .77-.63 2.14 2.14 0 0 0 .3-1.17 2.09 2.09 0 0 0-.52-1.57 2.43 2.43 0 0 0-1.7-.49 5.85 5.85 0 0 0-.66 0ZM98.59 64.64h-.3v-2.07h8.35v2.07h-.28a3.14 3.14 0 0 0-.4-1.23 1 1 0 0 0-.54-.46 3.86 3.86 0 0 0-1-.09h-1.38v6.07a9.55 9.55 0 0 0 0 1.33.66.66 0 0 0 .25.47 1.45 1.45 0 0 0 .79.15h.42v.29h-4.29v-.29h.44a1.43 1.43 0 0 0 .77-.14.65.65 0 0 0 .27-.43 9.38 9.38 0 0 0 .06-1.38v-6.07h-1.28a5.15 5.15 0 0 0-1.11.08 1 1 0 0 0-.54.48 3.3 3.3 0 0 0-.23 1.22ZM107.84 73.27v-.25a1.61 1.61 0 0 0 .88-.58 1.4 1.4 0 0 0 .32-.84c0-.23-.08-.35-.23-.35H108.52a.61.61 0 0 1-.4-.14.47.47 0 0 1-.16-.37.58.58 0 0 1 .15-.41.54.54 0 0 1 .41-.16.71.71 0 0 1 .62.35 1.41 1.41 0 0 1 .24.82 1.83 1.83 0 0 1-.42 1.2 2 2 0 0 1-1.12.73ZM32.73 90.7l1.57-2.63a2.29 2.29 0 0 0 .38-.91.62.62 0 0 0-.2-.46 1.06 1.06 0 0 0-.73-.2v-.27h2.59v.27a1.47 1.47 0 0 0-.87.4 6.44 6.44 0 0 0-.84 1.18l-1.79 3v1.06a6.78 6.78 0 0 0 .07 1.29.53.53 0 0 0 .26.39 1.73 1.73 0 0 0 .79.12v.27h-3.38v-.27h.13a1.41 1.41 0 0 0 .7-.13.58.58 0 0 0 .25-.4 8.52 8.52 0 0 0 0-1.27v-1l-2-3.25a8.3 8.3 0 0 0-.8-1.18 1.05 1.05 0 0 0-.71-.2v-.27h3.22v.27c-.6 0-.9.14-.9.41a1.88 1.88 0 0 0 .29.66ZM42.45 90.15a3.78 3.78 0 0 1 1.23-2.95 4.38 4.38 0 0 1 3.07-1.12 4.51 4.51 0 0 1 3.11 1.11 3.79 3.79 0 0 1 1.24 3 4 4 0 0 1-1.19 3 4.84 4.84 0 0 1-6.24 0 4 4 0 0 1-1.22-3.04Zm1.35 0a4.56 4.56 0 0 0 .76 2.88 2.75 2.75 0 0 0 2.29 1 2.56 2.56 0 0 0 2.12-1 4.49 4.49 0 0 0 .78-2.87 4.57 4.57 0 0 0-.76-2.8 2.69 2.69 0 0 0-2.23-1 2.64 2.64 0 0 0-2.2 1 4.51 4.51 0 0 0-.76 2.83ZM63.79 86.23h2.65v.27a1.4 1.4 0 0 0-.79.24.81.81 0 0 0-.32.45 5.45 5.45 0 0 0 0 1v2.64a10.82 10.82 0 0 1-.08 1.51 2.13 2.13 0 0 1-.46 1 2.59 2.59 0 0 1-1.06.76 4.14 4.14 0 0 1-1.59.28 4.05 4.05 0 0 1-1.79-.36 2.3 2.3 0 0 1-1-.93 3.17 3.17 0 0 1-.36-1.59v-3.29a9.5 9.5 0 0 0-.1-1.19.58.58 0 0 0-.24-.39 1.86 1.86 0 0 0-.78-.1h-.18v-.27h3.62v.27h-.15a1.83 1.83 0 0 0-.77.1.49.49 0 0 0-.24.36 6.2 6.2 0 0 0-.07 1.25v2.5a9.83 9.83 0 0 0 .12 1.85 1.63 1.63 0 0 0 .68.95 2.47 2.47 0 0 0 1.48.41 3 3 0 0 0 1.32-.28 2.11 2.11 0 0 0 .89-.67 2 2 0 0 0 .35-.84 9 9 0 0 0 .07-1.39v-2.75a3.91 3.91 0 0 0-.08-.94.74.74 0 0 0-.33-.43 1.74 1.74 0 0 0-.79-.19ZM81.72 94.18h-2.14a10.48 10.48 0 0 1-1.74-2.09c-.25-.36-.51-.7-.77-1a4.18 4.18 0 0 0-.56-.61.85.85 0 0 0-.48-.11h-.31v1.77a10.5 10.5 0 0 0 0 1.22.64.64 0 0 0 .24.44 1.34 1.34 0 0 0 .73.14h.38v.27H73.3v-.27h.26a1.45 1.45 0 0 0 .71-.13.62.62 0 0 0 .25-.4 10.27 10.27 0 0 0 0-1.27v-3.9a9.5 9.5 0 0 0 0-1.22.58.58 0 0 0-.24-.39 1.86 1.86 0 0 0-.78-.1h-.14v-.27l1.14-.06c.76 0 1.36-.05 1.8-.05a6.68 6.68 0 0 1 1.85.21 2.42 2.42 0 0 1 1.15.69 1.61 1.61 0 0 1 .44 1.15 1.79 1.79 0 0 1-.57 1.33 2.86 2.86 0 0 1-1.69.69 6.35 6.35 0 0 1 1.61 1.7 8.17 8.17 0 0 0 1.41 1.59 2.19 2.19 0 0 0 1.22.4Zm-6-4.11h.91a3.61 3.61 0 0 0 .81-.13 1.32 1.32 0 0 0 .56-.31 1.47 1.47 0 0 0 .34-.53 2.39 2.39 0 0 0 .12-.81 2 2 0 0 0-.42-1.34 2.41 2.41 0 0 0-1.82-.5h-.5Z"/>
  <g class="b">
    <path class="c" d="M4.17 104.3a3.37 3.37 0 0 1 2 .67 1.84 1.84 0 0 1 .65 1.44 1.94 1.94 0 0 1-.44 1.29 2.08 2.08 0 0 1-1.14.71 8.37 8.37 0 0 1-1.86.16H.27v-.26h.31a1.41 1.41 0 0 0 .7-.13.58.58 0 0 0 .25-.41 8.27 8.27 0 0 0 0-1.26v-3.87a8.28 8.28 0 0 0 0-1.25.55.55 0 0 0-.24-.37 1.86 1.86 0 0 0-.78-.1H.36v-.27h2.79c2.18 0 3.26.62 3.26 1.87a1.51 1.51 0 0 1-.56 1.24 3.27 3.27 0 0 1-1.68.54Zm-1.44-.11h.26a2.72 2.72 0 0 0 1.73-.4 1.6 1.6 0 0 0 .46-1.29 2.1 2.1 0 0 0-.18-1 1.21 1.21 0 0 0-.55-.52 3 3 0 0 0-1.24-.19h-.47Zm0 .28v3.21a.72.72 0 0 0 .22.46 1.1 1.1 0 0 0 .71.16 1.91 1.91 0 0 0 1.41-.48 2 2 0 0 0 .46-1.44 1.8 1.8 0 0 0-.53-1.45 2.83 2.83 0 0 0-1.86-.47ZM19.14 106.1h.28l-.17 2.47h-6.58v-.26h.16a1.29 1.29 0 0 0 .77-.16.83.83 0 0 0 .22-.4 10.24 10.24 0 0 0 0-1.24v-3.9a7.9 7.9 0 0 0-.05-1.2.56.56 0 0 0-.23-.4 1.68 1.68 0 0 0-.75-.11v-.27h5.68l.19 2h-.28a3.06 3.06 0 0 0-.46-1.18 1.17 1.17 0 0 0-.65-.44 5.69 5.69 0 0 0-1.2-.09h-1.08v3.33h.84a2.17 2.17 0 0 0 .81-.1.49.49 0 0 0 .31-.3 3.16 3.16 0 0 0 .07-.79h.27v2.72h-.27a2.43 2.43 0 0 0-.11-.89.58.58 0 0 0-.33-.29 2.84 2.84 0 0 0-.72-.07h-.87v1.89a4.12 4.12 0 0 0 .2 1.6c.12.16.44.25 1 .25h.59a2.73 2.73 0 0 0 1-.17 1.72 1.72 0 0 0 .77-.66 3.87 3.87 0 0 0 .59-1.34ZM30.39 105.64h-3l-.2.51a5 5 0 0 0-.46 1.43.63.63 0 0 0 .24.54 1 1 0 0 0 .63.19v.26h-2.38v-.26a1.26 1.26 0 0 0 .78-.38 4.5 4.5 0 0 0 .62-1.22c0-.06.12-.28.28-.68l2.31-5.51h.23l2.66 6.31.36.83a1 1 0 0 0 .33.44 1.22 1.22 0 0 0 .62.21v.26h-3.12v-.26a2.26 2.26 0 0 0 .78-.09.34.34 0 0 0 .2-.34 3.41 3.41 0 0 0-.27-.76Zm-.1-.26-1.4-3.36-1.41 3.39ZM44.24 100.63h2.65v.27a1.4 1.4 0 0 0-.79.24.81.81 0 0 0-.32.45 6.54 6.54 0 0 0 0 1v2.64a10.82 10.82 0 0 1-.08 1.51 2.13 2.13 0 0 1-.46 1 2.59 2.59 0 0 1-1.06.76 4.14 4.14 0 0 1-1.59.28 4.05 4.05 0 0 1-1.79-.36 2.3 2.3 0 0 1-1-.93 3.17 3.17 0 0 1-.31-1.53v-3.29a9.5 9.5 0 0 0 0-1.22.55.55 0 0 0-.24-.39 1.86 1.86 0 0 0-.78-.1h-.18v-.27h3.62v.27h-.15a1.83 1.83 0 0 0-.77.1.49.49 0 0 0-.24.36 6.2 6.2 0 0 0-.07 1.25v2.5a9.83 9.83 0 0 0 .12 1.85 1.63 1.63 0 0 0 .68 1 2.47 2.47 0 0 0 1.48.41 3 3 0 0 0 1.33-.28 2.08 2.08 0 0 0 .88-.68 1.93 1.93 0 0 0 .35-.83 9 9 0 0 0 .07-1.36v-2.71a3.91 3.91 0 0 0-.08-.94.74.74 0 0 0-.33-.43 1.74 1.74 0 0 0-.79-.19ZM53.11 102.54h-.27v-1.91h7.75l.05 1.91h-.26a3 3 0 0 0-.37-1.13.91.91 0 0 0-.5-.43 3.83 3.83 0 0 0-.92-.08h-1.28v5.61a9.73 9.73 0 0 0 0 1.22.62.62 0 0 0 .23.43 1.28 1.28 0 0 0 .73.15h.39v.26h-4v-.26h.41a1.41 1.41 0 0 0 .7-.13.58.58 0 0 0 .25-.41 7.78 7.78 0 0 0 .06-1.26v-5.61h-1.09a4.66 4.66 0 0 0-1 .07 1 1 0 0 0-.49.44 3.06 3.06 0 0 0-.39 1.13ZM66.61 100.9v-.27h3.63v.27h-.17a1.86 1.86 0 0 0-.77.1.49.49 0 0 0-.24.36 7.54 7.54 0 0 0-.06 1.25v3.9a10.5 10.5 0 0 0 0 1.22.6.6 0 0 0 .24.43 1.26 1.26 0 0 0 .73.15h.23v.26h-3.59v-.26h.23a1.45 1.45 0 0 0 .71-.13.62.62 0 0 0 .25-.41 10 10 0 0 0 0-1.26v-3.9a9.5 9.5 0 0 0 0-1.22.52.52 0 0 0-.24-.39 1.86 1.86 0 0 0-.78-.1ZM82.42 100.63l.07 2h-.28a2.47 2.47 0 0 0-.37-1.08 1.25 1.25 0 0 0-.59-.53 3.73 3.73 0 0 0-1.05-.1h-1.55v3.37h.74a1.33 1.33 0 0 0 1-.25 1.4 1.4 0 0 0 .24-1h.29v2.8h-.33a2.51 2.51 0 0 0-.11-.81.67.67 0 0 0-.3-.4 2 2 0 0 0-.79-.11h-.74v2a10.5 10.5 0 0 0 0 1.22.63.63 0 0 0 .24.43 1.27 1.27 0 0 0 .74.15h.36v.26h-3.7v-.26h.25a1.45 1.45 0 0 0 .71-.13.62.62 0 0 0 .25-.41 8.27 8.27 0 0 0 .05-1.26v-3.9a7.88 7.88 0 0 0-.05-1.22.55.55 0 0 0-.24-.39 1.82 1.82 0 0 0-.78-.1h-.19v-.27ZM94.39 100.63h2.65v.27a1.4 1.4 0 0 0-.79.24.81.81 0 0 0-.32.45 5.1 5.1 0 0 0-.06 1v2.64a9.45 9.45 0 0 1-.08 1.51 2 2 0 0 1-.45 1 2.56 2.56 0 0 1-1.07.76 4.62 4.62 0 0 1-3.37-.08 2.3 2.3 0 0 1-1-.93 3.16 3.16 0 0 1-.32-1.53v-3.29a7.42 7.42 0 0 0-.06-1.22.52.52 0 0 0-.23-.39 1.86 1.86 0 0 0-.78-.1h-.22v-.27h3.62v.27h-.16a1.77 1.77 0 0 0-.76.1.5.5 0 0 0-.25.36 7.54 7.54 0 0 0-.06 1.25v2.5a9.83 9.83 0 0 0 .12 1.85 1.63 1.63 0 0 0 .68 1 2.45 2.45 0 0 0 1.48.41 3 3 0 0 0 1.32-.28 2.11 2.11 0 0 0 .89-.68 1.93 1.93 0 0 0 .35-.83 9 9 0 0 0 .07-1.36v-2.71a3.91 3.91 0 0 0-.08-.94.74.74 0 0 0-.33-.43 1.78 1.78 0 0 0-.79-.19ZM109.83 106.24v2.33h-6.84v-.26h.23a1.45 1.45 0 0 0 .71-.13.62.62 0 0 0 .25-.41 8.27 8.27 0 0 0 0-1.26v-3.9a7.88 7.88 0 0 0 0-1.22.55.55 0 0 0-.19-.37 1.82 1.82 0 0 0-.78-.1h-.22v-.27h3.81v.27h-.35a1.83 1.83 0 0 0-.77.1.49.49 0 0 0-.24.36 7.54 7.54 0 0 0-.06 1.25v4.16a7.84 7.84 0 0 0 0 1.08.54.54 0 0 0 .26.34 2.12 2.12 0 0 0 .89.12h.61a3.53 3.53 0 0 0 1.08-.13 1.6 1.6 0 0 0 .68-.57 4.53 4.53 0 0 0 .58-1.37Z"/>
  </g>
  <path class="c" d="M4.17 119.9a3.37 3.37 0 0 1 2 .67 1.84 1.84 0 0 1 .65 1.44 1.94 1.94 0 0 1-.44 1.29 2.08 2.08 0 0 1-1.14.71 8.28 8.28 0 0 1-1.86.17H.27v-.27h.31a1.41 1.41 0 0 0 .7-.13.58.58 0 0 0 .25-.4 8.52 8.52 0 0 0 0-1.27v-3.87a8.36 8.36 0 0 0 0-1.25.58.58 0 0 0-.24-.39 1.86 1.86 0 0 0-.78-.1H.36v-.27h2.79c2.18 0 3.26.62 3.26 1.87a1.54 1.54 0 0 1-.56 1.25 3.36 3.36 0 0 1-1.68.55Zm-1.44-.11h.26a2.72 2.72 0 0 0 1.73-.4 1.6 1.6 0 0 0 .46-1.29 2.1 2.1 0 0 0-.18-1 1.21 1.21 0 0 0-.55-.52 3 3 0 0 0-1.24-.18h-.48Zm0 .28v3.21a.72.72 0 0 0 .22.46 1.1 1.1 0 0 0 .71.16 1.91 1.91 0 0 0 1.41-.48 2 2 0 0 0 .46-1.44 1.8 1.8 0 0 0-.53-1.45 2.83 2.83 0 0 0-1.82-.51ZM18.53 120.15a3.78 3.78 0 0 1 1.23-2.95 4.37 4.37 0 0 1 3.07-1.12 4.48 4.48 0 0 1 3.1 1.11 3.79 3.79 0 0 1 1.25 3 4 4 0 0 1-1.19 3 4.36 4.36 0 0 1-3.14 1.14 4.37 4.37 0 0 1-3.11-1.14 4 4 0 0 1-1.21-3.04Zm1.34 0a4.56 4.56 0 0 0 .77 2.88 2.75 2.75 0 0 0 2.29 1 2.59 2.59 0 0 0 2.12-1 4.49 4.49 0 0 0 .78-2.87 4.57 4.57 0 0 0-.77-2.84 2.66 2.66 0 0 0-2.22-1 2.64 2.64 0 0 0-2.2 1 4.51 4.51 0 0 0-.77 2.87ZM38.9 118.14h-.27v-1.91h7.71v1.91h-.25a3 3 0 0 0-.37-1.13.94.94 0 0 0-.5-.43 3.83 3.83 0 0 0-.92-.08h-1.2v5.61a10.5 10.5 0 0 0 0 1.22.64.64 0 0 0 .24.44 1.36 1.36 0 0 0 .73.14h.38v.27h-4v-.27h.54a1.45 1.45 0 0 0 .71-.13.62.62 0 0 0 .25-.4 8 8 0 0 0 .06-1.27v-5.61h-1.23a4.6 4.6 0 0 0-1 .07 1 1 0 0 0-.5.45 3.14 3.14 0 0 0-.38 1.12ZM58.17 118.14h-.27v-1.91h7.71v1.91h-.25a3 3 0 0 0-.37-1.13.94.94 0 0 0-.5-.43 3.83 3.83 0 0 0-.92-.08h-1.2v5.61a10.5 10.5 0 0 0 0 1.22.64.64 0 0 0 .24.44 1.36 1.36 0 0 0 .73.14h.38v.27h-4v-.27h.41a1.45 1.45 0 0 0 .71-.13.62.62 0 0 0 .25-.4 8 8 0 0 0 .06-1.27v-5.61h-1.1a4.6 4.6 0 0 0-1 .07 1 1 0 0 0-.5.45 3.14 3.14 0 0 0-.38 1.12ZM83.99 121.84l-.06 2.34h-6.75v-.27h.23a1.45 1.45 0 0 0 .71-.13.62.62 0 0 0 .25-.4 8 8 0 0 0 .06-1.27v-3.9a7.42 7.42 0 0 0-.06-1.22.6.6 0 0 0-.23-.39 1.88 1.88 0 0 0-.79-.1h-.17v-.27h3.81v.27h-.35a1.83 1.83 0 0 0-.77.1.49.49 0 0 0-.24.36 7.54 7.54 0 0 0-.06 1.25v4.16a7.84 7.84 0 0 0 0 1.08.55.55 0 0 0 .26.34 2.12 2.12 0 0 0 .89.12h.61a3.49 3.49 0 0 0 1.08-.13 1.6 1.6 0 0 0 .68-.57 4.42 4.42 0 0 0 .58-1.37ZM101.87 121.7h.28l-.17 2.48H95.4v-.27h.16a1.29 1.29 0 0 0 .77-.16.76.76 0 0 0 .22-.4 10.24 10.24 0 0 0 0-1.24v-3.9a7.65 7.65 0 0 0 0-1.19.55.55 0 0 0-.22-.41 1.73 1.73 0 0 0-.76-.11v-.27h5.68l.19 2h-.28a3.06 3.06 0 0 0-.46-1.18 1.15 1.15 0 0 0-.64-.44 5.8 5.8 0 0 0-1.21-.09h-1.1v3.33h.84a2.17 2.17 0 0 0 .81-.1.49.49 0 0 0 .31-.3 2.73 2.73 0 0 0 .07-.79h.28v2.72h-.28a2.37 2.37 0 0 0-.11-.88.54.54 0 0 0-.33-.3 2.84 2.84 0 0 0-.72-.07h-.87v1.89a4.12 4.12 0 0 0 .18 1.66c.12.16.45.25 1 .25h.59a2.73 2.73 0 0 0 1-.17 1.72 1.72 0 0 0 .77-.66 3.87 3.87 0 0 0 .58-1.4ZM107.84 126.27v-.25a1.61 1.61 0 0 0 .88-.58 1.4 1.4 0 0 0 .32-.84c0-.23-.08-.35-.23-.35H108.52a.61.61 0 0 1-.4-.14.46.46 0 0 1-.16-.37.58.58 0 0 1 .15-.41.54.54 0 0 1 .41-.16.71.71 0 0 1 .62.35 1.41 1.41 0 0 1 .24.82 1.83 1.83 0 0 1-.42 1.2 2 2 0 0 1-1.12.73ZM19.66 147.09v-2.55h.33c.33 1.66 1.11 2.49 2.36 2.49a1.68 1.68 0 0 0 1.29-.47 1.5 1.5 0 0 0 .46-1.07 1.35 1.35 0 0 0-.4-1 5 5 0 0 0-1.48-.86 10.55 10.55 0 0 1-1.44-.72 2.24 2.24 0 0 1-.76-.8 2.13 2.13 0 0 1-.27-1.05 1.89 1.89 0 0 1 .59-1.41 2.05 2.05 0 0 1 1.49-.57 2.71 2.71 0 0 1 1 .17 2.32 2.32 0 0 1 .91.68 1.26 1.26 0 0 0 .31-.7h.26v2.08h-.32a2.77 2.77 0 0 0-.79-1.43 1.86 1.86 0 0 0-1.31-.52 1.32 1.32 0 0 0-1 .38 1.28 1.28 0 0 0-.33.84 1.23 1.23 0 0 0 .42.94 5.73 5.73 0 0 0 1.48.86 15.68 15.68 0 0 1 1.49.74 2.06 2.06 0 0 1 .75.77 2.34 2.34 0 0 1 .28 1.13 2.18 2.18 0 0 1-.68 1.66 2.53 2.53 0 0 1-1.82.64 2.76 2.76 0 0 1-2.18-1 1.91 1.91 0 0 0-.28.77ZM36.4 143.19h-4.15v1.92a8 8 0 0 0 .05 1.22.67.67 0 0 0 .23.44 1.36 1.36 0 0 0 .73.14h.2v.27h-3.57v-.27h.2a1.45 1.45 0 0 0 .71-.13.62.62 0 0 0 .25-.4 8 8 0 0 0 .06-1.27v-3.9a7.42 7.42 0 0 0-.06-1.22.57.57 0 0 0-.23-.39 1.88 1.88 0 0 0-.79-.1h-.14v-.27h3.57v.27h-.14a1.86 1.86 0 0 0-.77.1.49.49 0 0 0-.24.36 7.54 7.54 0 0 0-.06 1.25v1.58h4.15v-1.58a7.42 7.42 0 0 0-.06-1.22.53.53 0 0 0-.23-.39 1.86 1.86 0 0 0-.78-.1h-.21v-.27h3.62v.27h-.12a1.83 1.83 0 0 0-.77.1.49.49 0 0 0-.24.36 7.54 7.54 0 0 0-.06 1.25v3.9a10.5 10.5 0 0 0 0 1.22.64.64 0 0 0 .24.44 1.35 1.35 0 0 0 .72.14h.19v.27h-3.58v-.27h.28a1.44 1.44 0 0 0 .7-.13.57.57 0 0 0 .24-.4 8 8 0 0 0 .06-1.27ZM48.93 144.25h-3l-.21.5a5.19 5.19 0 0 0-.45 1.43.63.63 0 0 0 .24.54 1 1 0 0 0 .62.19v.27h-2.38v-.27a1.26 1.26 0 0 0 .79-.38 4.5 4.5 0 0 0 .62-1.22c0-.06.11-.28.28-.68l2.31-5.51h.24l2.65 6.31.37.83a1 1 0 0 0 .33.44 1.19 1.19 0 0 0 .62.21v.27h-3.13v-.27a2.16 2.16 0 0 0 .77-.09.33.33 0 0 0 .21-.34 3.41 3.41 0 0 0-.27-.76Zm-.1-.27-1.41-3.38-1.43 3.42ZM65.29 147.18h-2.14a9.82 9.82 0 0 1-1.74-2.09c-.25-.36-.51-.7-.78-1a4.34 4.34 0 0 0-.55-.61.85.85 0 0 0-.48-.11h-.31v1.77a10.5 10.5 0 0 0 0 1.22.67.67 0 0 0 .23.44 1.36 1.36 0 0 0 .73.14h.38v.27h-3.8v-.27h.26a1.48 1.48 0 0 0 .71-.13.57.57 0 0 0 .24-.4 8 8 0 0 0 .06-1.27v-3.9a7.42 7.42 0 0 0-.06-1.22.53.53 0 0 0-.23-.39 1.86 1.86 0 0 0-.78-.1h-.14v-.27l1.14-.06c.75 0 1.36-.05 1.8-.05a6.68 6.68 0 0 1 1.85.21 2.42 2.42 0 0 1 1.15.69 1.65 1.65 0 0 1 .44 1.15 1.79 1.79 0 0 1-.57 1.33 2.89 2.89 0 0 1-1.69.69 6.35 6.35 0 0 1 1.61 1.73 8.17 8.17 0 0 0 1.41 1.59 2.19 2.19 0 0 0 1.22.4Zm-6-4.11h.9a3.61 3.61 0 0 0 .82-.13 1.32 1.32 0 0 0 .56-.31 1.47 1.47 0 0 0 .34-.53 2.39 2.39 0 0 0 .12-.81 2 2 0 0 0-.42-1.34 2.42 2.42 0 0 0-1.83-.5h-.49ZM76.77 144.7h.28l-.17 2.48H70.3v-.27h.17a1.25 1.25 0 0 0 .76-.16.69.69 0 0 0 .22-.4 9.44 9.44 0 0 0 .05-1.24v-3.9a9.25 9.25 0 0 0-.05-1.19.56.56 0 0 0-.23-.41 1.71 1.71 0 0 0-.75-.11v-.27h5.68l.18 2h-.27a3.23 3.23 0 0 0-.46-1.18 1.17 1.17 0 0 0-.65-.44 5.73 5.73 0 0 0-1.21-.09h-1.1v3.33h.85a2.24 2.24 0 0 0 .81-.1.5.5 0 0 0 .3-.3 2.73 2.73 0 0 0 .07-.79h.32v2.72h-.28a2.17 2.17 0 0 0-.11-.88.52.52 0 0 0-.32-.3 2.93 2.93 0 0 0-.73-.07h-.87v1.89a4.12 4.12 0 0 0 .18 1.66c.12.16.45.25 1 .25h.59a2.7 2.7 0 0 0 1-.17 1.79 1.79 0 0 0 .78-.66 3.87 3.87 0 0 0 .54-1.4ZM82.13 139.29l1.31-.06c1.09-.05 1.82-.08 2.2-.08a5.82 5.82 0 0 1 2.76.54 3.53 3.53 0 0 1 1.48 1.46 4.52 4.52 0 0 1 .48 2.13 4.84 4.84 0 0 1-.26 1.6 3.42 3.42 0 0 1-.73 1.2 2.94 2.94 0 0 1-1.06.72 4.18 4.18 0 0 1-1.16.31 14.27 14.27 0 0 1-1.53.07H82.1v-.27h.33a1.41 1.41 0 0 0 .7-.13.58.58 0 0 0 .25-.4 8 8 0 0 0 .06-1.27v-3.84a7.42 7.42 0 0 0-.06-1.22.48.48 0 0 0-.23-.38 1.81 1.81 0 0 0-.78-.11h-.24Zm2.45.17v5.31a14.49 14.49 0 0 0 0 1.51.6.6 0 0 0 .26.48 2.06 2.06 0 0 0 .93.14 4.34 4.34 0 0 0 1.7-.28 2.38 2.38 0 0 0 1.12-1.12 4.48 4.48 0 0 0 .45-2.13 5.83 5.83 0 0 0-.26-1.8 3.38 3.38 0 0 0-.75-1.29 2.48 2.48 0 0 0-1.08-.67 5.31 5.31 0 0 0-1.52-.18Z"/>
  <g class="b">
    <path class="c" d="m7.04 154.17.07 2.14h-.3a2.69 2.69 0 0 0-.39-1.16 1.38 1.38 0 0 0-.65-.58 4.16 4.16 0 0 0-1.13-.11H2.99v3.65h.81a1.52 1.52 0 0 0 1-.26 1.58 1.58 0 0 0 .26-1.06h.31v3h-.31a2.52 2.52 0 0 0-.12-.87.73.73 0 0 0-.33-.44 2 2 0 0 0-.85-.11h-.77v2.13a9 9 0 0 0 0 1.36.66.66 0 0 0 .25.47 1.49 1.49 0 0 0 .8.15h.29v.29h-4v-.29H.6a1.39 1.39 0 0 0 .76-.14.62.62 0 0 0 .28-.43 9.38 9.38 0 0 0 .06-1.38v-4.22a8.75 8.75 0 0 0-.04-1.29.6.6 0 0 0-.26-.42 2.11 2.11 0 0 0-.85-.11H.4v-.29ZM17.93 162.77h-2.31a10.36 10.36 0 0 1-1.89-2.25c-.27-.39-.55-.77-.84-1.12a4.32 4.32 0 0 0-.61-.66.87.87 0 0 0-.51-.12h-.34v1.91a9.55 9.55 0 0 0 0 1.33.66.66 0 0 0 .25.47 1.45 1.45 0 0 0 .79.15h.41v.29H8.81v-.29h.28a1.46 1.46 0 0 0 .77-.14.65.65 0 0 0 .27-.43 12 12 0 0 0 0-1.38v-4.22a11.2 11.2 0 0 0 0-1.32.6.6 0 0 0-.26-.42 2.11 2.11 0 0 0-.85-.11h-.14v-.29l1.23-.07c.82 0 1.47-.05 2-.05a7.45 7.45 0 0 1 2 .22 2.82 2.82 0 0 1 1.24.75 1.8 1.8 0 0 1 .48 1.25 2 2 0 0 1-.62 1.44 3.14 3.14 0 0 1-1.83.74 7 7 0 0 1 1.74 1.88 8.65 8.65 0 0 0 1.49 1.69 2.31 2.31 0 0 0 1.32.43Zm-6.5-4.44h1a3.18 3.18 0 0 0 .88-.14 1.38 1.38 0 0 0 .61-.33 1.5 1.5 0 0 0 .36-.57 2.5 2.5 0 0 0 .14-.88 2.16 2.16 0 0 0-.43-1.49 2.54 2.54 0 0 0-2-.55h-.54ZM18.99 158.41a4.16 4.16 0 0 1 1.33-3.2 4.8 4.8 0 0 1 3.33-1.2 4.91 4.91 0 0 1 3.34 1.19 4.13 4.13 0 0 1 1.35 3.26 4.3 4.3 0 0 1-1.35 3.24 4.73 4.73 0 0 1-3.4 1.23 4.74 4.74 0 0 1-3.37-1.23 4.33 4.33 0 0 1-1.23-3.29Zm1.45.05a5 5 0 0 0 .83 3.12 3 3 0 0 0 2.49 1 2.82 2.82 0 0 0 2.3-1 6.13 6.13 0 0 0 0-6.18 2.86 2.86 0 0 0-2.41-1.07 2.87 2.87 0 0 0-2.39 1 4.93 4.93 0 0 0-.86 3.13ZM35.74 161.29l3.13-7.12h2.64v.29h-.31a2.08 2.08 0 0 0-.83.1.55.55 0 0 0-.27.39 9 9 0 0 0-.06 1.36v4.22a9.55 9.55 0 0 0 .05 1.33.7.7 0 0 0 .25.47 1.45 1.45 0 0 0 .79.15h.38v.29H37.4v-.29h.31a1.44 1.44 0 0 0 .76-.14.65.65 0 0 0 .27-.43 9.38 9.38 0 0 0 .06-1.38v-5.51l-3.41 7.71h-.3l-3.43-7.71v5a10.72 10.72 0 0 0 .06 1.41 1.07 1.07 0 0 0 .39.65 1.5 1.5 0 0 0 .93.32v.29h-3.05v-.29a1.56 1.56 0 0 0 .9-.3 1.08 1.08 0 0 0 .42-.66 9.07 9.07 0 0 0 .08-1.46v-3.75a8.75 8.75 0 0 0-.06-1.32.6.6 0 0 0-.26-.42 2.05 2.05 0 0 0-.84-.11h-.24v-.29h2.62ZM46.99 156.24h-.29v-2.07h8.36v2.07h-.27a3.31 3.31 0 0 0-.4-1.23 1 1 0 0 0-.55-.46 3.72 3.72 0 0 0-1-.09h-1.33v6.07a11.54 11.54 0 0 0 0 1.33.67.67 0 0 0 .26.47 1.43 1.43 0 0 0 .78.15h.44v.29h-4.26v-.29h.45a1.41 1.41 0 0 0 .76-.14.65.65 0 0 0 .27-.43 9.38 9.38 0 0 0 .06-1.38v-6.07h-1.28a5.2 5.2 0 0 0-1.12.08 1 1 0 0 0-.54.48 3.51 3.51 0 0 0-.34 1.22ZM64.06 158.46h-4.49v2.07a11.54 11.54 0 0 0 0 1.33.67.67 0 0 0 .26.47 1.43 1.43 0 0 0 .78.15h.22v.29h-3.84v-.29h.22a1.43 1.43 0 0 0 .77-.14.65.65 0 0 0 .27-.43 9.38 9.38 0 0 0 .06-1.38v-4.22a8.75 8.75 0 0 0-.06-1.32.6.6 0 0 0-.25-.42 2.11 2.11 0 0 0-.85-.11h-.16v-.29h3.87v.29h-.16a2.09 2.09 0 0 0-.82.1.54.54 0 0 0-.26.39 7.43 7.43 0 0 0-.07 1.36v1.71h4.49v-1.71a11.2 11.2 0 0 0-.05-1.29.63.63 0 0 0-.25-.42 2.15 2.15 0 0 0-.85-.11h-.23v-.29h3.92v.29h-.13a2.12 2.12 0 0 0-.83.1.58.58 0 0 0-.27.39 9 9 0 0 0-.06 1.36v4.22a9.55 9.55 0 0 0 .05 1.33.66.66 0 0 0 .25.47 1.45 1.45 0 0 0 .79.15h.2v.29h-3.9v-.29h.31a1.41 1.41 0 0 0 .76-.14.65.65 0 0 0 .27-.43 12 12 0 0 0 0-1.38ZM75.6 160.1h.3l-.18 2.67h-7.13v-.29h.18a1.31 1.31 0 0 0 .83-.17.76.76 0 0 0 .23-.43 8.69 8.69 0 0 0 .06-1.35v-4.22a8.62 8.62 0 0 0-.06-1.29.61.61 0 0 0-.25-.44 1.75 1.75 0 0 0-.81-.12v-.29h6.15l.2 2.14h-.3a3.47 3.47 0 0 0-.49-1.28 1.23 1.23 0 0 0-.71-.47 5.77 5.77 0 0 0-1.3-.1h-1.2v3.61h.92a2.3 2.3 0 0 0 .88-.11.61.61 0 0 0 .33-.32 3.11 3.11 0 0 0 .08-.86h.29v3h-.29a2.5 2.5 0 0 0-.12-1 .57.57 0 0 0-.36-.32 2.83 2.83 0 0 0-.78-.07h-1v2a4.41 4.41 0 0 0 .2 1.8c.13.18.49.27 1.06.27h.66a3.22 3.22 0 0 0 1.12-.17 2 2 0 0 0 .83-.72 4.05 4.05 0 0 0 .66-1.47ZM81.5 156.24h-.29v-2.07h8.36v2.07h-.27a3.31 3.31 0 0 0-.31-1.22 1 1 0 0 0-.55-.46 3.72 3.72 0 0 0-1-.09h-1.39v6.07a11.54 11.54 0 0 0 0 1.33.67.67 0 0 0 .26.47 1.45 1.45 0 0 0 .79.15h.41v.29h-4.24v-.29h.45a1.41 1.41 0 0 0 .76-.14.65.65 0 0 0 .27-.43 8.86 8.86 0 0 0 .07-1.38v-6.07h-1.28a5.27 5.27 0 0 0-1.12.08 1 1 0 0 0-.53.48 3.28 3.28 0 0 0-.39 1.21ZM91.49 158.41a4.12 4.12 0 0 1 1.33-3.2 4.8 4.8 0 0 1 3.33-1.2 4.91 4.91 0 0 1 3.36 1.19 4.13 4.13 0 0 1 1.35 3.26 4.3 4.3 0 0 1-1.29 3.24 5.27 5.27 0 0 1-6.77 0 4.33 4.33 0 0 1-1.31-3.29Zm1.45.05a5 5 0 0 0 .83 3.12 3 3 0 0 0 2.48 1 2.81 2.81 0 0 0 2.3-1 6.1 6.1 0 0 0 0-6.18 3.26 3.26 0 0 0-4.8 0 4.93 4.93 0 0 0-.76 3.06ZM105.14 158.73v1.8a11.54 11.54 0 0 0 0 1.33.67.67 0 0 0 .26.47 1.45 1.45 0 0 0 .79.15h.28v.29h-3.94v-.29h.23a1.39 1.39 0 0 0 .76-.14.65.65 0 0 0 .27-.43 9.38 9.38 0 0 0 .06-1.38v-4.22a8.75 8.75 0 0 0-.06-1.32.6.6 0 0 0-.25-.42 2.15 2.15 0 0 0-.85-.11h-.16v-.29h3.08a7.77 7.77 0 0 1 2 .2 2.41 2.41 0 0 1 1.18.75 2 2 0 0 1 .46 1.34 2.44 2.44 0 0 1-.31 1.25 2 2 0 0 1-.9.82 5.47 5.47 0 0 1-2.07.28Zm0-.32h.62a4 4 0 0 0 1.2-.15 1.43 1.43 0 0 0 .76-.63 2.14 2.14 0 0 0 .31-1.17 2.1 2.1 0 0 0-.53-1.57 2.42 2.42 0 0 0-1.7-.49 6 6 0 0 0-.66 0ZM109.99 162.37a.54.54 0 0 1 .17-.4.52.52 0 0 1 .4-.17.55.55 0 0 1 .42.17.54.54 0 0 1 .16.4.58.58 0 0 1-.58.58.58.58 0 0 1-.57-.58Z"/>
  </g>
</svg>
